<svg width="47" height="48" viewBox="0 0 47 48" fill="none" xmlns="http://www.w3.org/2000/svg">
<g clip-path="url(#clip0_825_5120)">
<path d="M14.6703 24.2339L14.8668 24.001H32.5922C33.1239 24.001 33.5725 24.3968 33.6386 24.9244L34.3667 30.7251L33.9547 32.1227L34.6844 33.2565L34.9062 35.0233L34.6761 35.0232C34.7551 35.6529 34.2642 36.2094 33.6296 36.2094L13.5392 36.4074C12.9046 36.4074 12.4137 35.851 12.4927 35.2213L13.6238 25.1573C13.69 24.6297 14.1385 24.2339 14.6703 24.2339Z" fill="#E91B1A"/>
<path d="M33.9085 36.6054H13.0962C12.4613 36.6054 11.9703 36.049 12.0494 35.4193L12.3209 33.2565L12.9228 32.1995L12.6386 30.7251L13.3667 24.9244C13.4332 24.397 13.8814 24.001 14.4135 24.001H14.866L13.6314 33.8372C13.5523 34.4669 14.0433 35.0232 14.6782 35.0232H34.9058L34.9553 35.4193C35.0344 36.049 34.5435 36.6054 33.9085 36.6054Z" fill="#BB0100"/>
<path d="M34.6831 33.2565H31.2537C31.1082 33.2565 30.99 33.3747 30.99 33.5202V36.6054H28.3533V33.5202C28.3533 33.3747 28.2352 33.2565 28.0896 33.2565H12.3203L12.9356 32.0514L12.6378 30.7251H15.3531C15.4971 30.7251 15.6147 30.6096 15.6168 30.4656L15.7138 24.001H18.3516L18.254 30.4572C18.2519 30.6043 18.3706 30.7251 18.5177 30.7251H34.3656L34.5508 32.2018L34.2316 32.7157L34.6831 33.2565Z" fill="#F8F7F7"/>
<path d="M15.7142 24.001H16.7689L16.6719 30.4656C16.6698 30.6096 16.5522 30.7251 16.4082 30.7251H15.3535C15.4975 30.7251 15.6151 30.6096 15.6172 30.4656L15.7142 24.001Z" fill="#EBEBEB"/>
<path d="M34.6832 33.2569H31.2539C31.1084 33.2569 30.9902 33.375 30.9902 33.5206V32.4658C30.9902 32.3203 31.1084 32.2021 31.2539 32.2021H34.5509L34.6832 33.2569Z" fill="#EBEBEB"/>
<path d="M28.0897 32.2013H14.0752C13.9482 32.2013 13.85 32.09 13.8659 31.964L14.0215 30.7246H12.6378L12.3203 33.256H13.7035H28.0896C28.2352 33.256 28.3533 33.3742 28.3533 33.5197V32.465C28.3534 32.3193 28.2353 32.2013 28.0897 32.2013Z" fill="#EBEBEB"/>
<path d="M28.3535 35.0234H30.9902V36.6056H28.3535V35.0234Z" fill="#EBEBEB"/>
<path d="M16.0605 18.6596C16.0605 15.6394 17.0974 12.998 19.3892 11.5562C20.561 10.819 21.9573 10.3955 23.5014 10.3955C28.0656 10.3955 31.3385 14.0957 31.3385 18.6602C31.3385 23.8309 26.8599 28.6483 24.6707 30.667C24.1669 31.1316 23.7105 31.3209 23.5317 31.4592C23.4702 31.5069 23.3913 31.4463 23.3297 31.3986C22.3742 30.6596 16.0605 25.0203 16.0605 18.6596Z" fill="#FE3F3F"/>
<path d="M24.6726 30.6679C24.1685 31.132 23.7861 31.4484 23.6074 31.5866C23.5457 31.6346 23.4602 31.6346 23.3985 31.5866C22.4435 30.8477 15.666 25.0212 15.666 18.6605C15.666 15.6402 17.0988 12.9985 19.3907 11.5566C17.8176 13.0702 16.8789 15.2668 16.8789 17.7112C16.8789 24.0719 23.6564 29.8984 24.6114 30.6373C24.6299 30.6521 24.651 30.6621 24.6726 30.6679Z" fill="#9E0100"/>
<path d="M29.3034 18.6596C29.3034 19.9928 28.8537 21.2209 28.0978 22.2006C27.037 23.5753 25.3731 24.224 23.5025 24.224C20.2988 24.224 18.0215 21.7451 18.0215 18.5412C18.0215 16.6702 18.5874 15.1245 19.9623 14.0637C20.9419 13.3079 22.1697 12.8584 23.5025 12.8584C26.7062 12.8584 29.3034 15.4557 29.3034 18.6596Z" fill="#F8F7F7"/>
<path d="M28.0968 22.1999C27.0363 23.5748 25.3725 24.4603 23.502 24.4603C20.2984 24.4603 17.7012 21.8629 17.7012 18.6591C17.7012 16.7879 18.5871 15.124 19.9619 14.0635C19.2057 15.0428 18.7559 16.2711 18.7559 17.6043C18.7559 20.8082 21.3531 23.4055 24.5567 23.4055C25.8898 23.4055 27.1175 22.9562 28.0968 22.1999Z" fill="#EBEBEB"/>
<path d="M35.3471 35.3703L35.0767 33.2164V33.2163L34.7594 30.6882C34.7591 30.6841 34.7584 30.68 34.7579 30.676L34.422 28.0001C34.3948 27.7833 34.1971 27.6296 33.9804 27.6569C33.7636 27.6841 33.61 27.8819 33.6372 28.0986L33.9173 30.3298H25.5982C26.346 29.5955 27.2511 28.6267 28.1436 27.4733C28.948 26.4337 29.618 25.4072 30.1534 24.3968H32.5909C32.9225 24.3968 33.2037 24.6449 33.245 24.9739L33.4057 26.2544C33.4308 26.4545 33.6012 26.6008 33.7976 26.6008C33.8141 26.6008 33.8307 26.5997 33.8474 26.5976C34.0641 26.5704 34.2177 26.3726 34.1905 26.1559L34.0298 24.8754C33.9389 24.1515 33.3203 23.6057 32.5909 23.6057H30.5462C31.3357 21.9029 31.7344 20.2491 31.7344 18.6601C31.7344 16.3241 30.9131 14.1531 29.4218 12.547C27.8967 10.9046 25.7943 10 23.5019 10C21.9445 10 20.4501 10.4221 19.1802 11.2207C18.9953 11.337 18.9396 11.5811 19.056 11.766C19.1723 11.9509 19.4163 12.0067 19.6014 11.8903C20.7449 11.1712 22.0937 10.7911 23.5019 10.7911C27.7443 10.7911 30.9434 14.174 30.9434 18.6601C30.9434 20.2865 30.4885 21.9969 29.5871 23.772C29.0709 24.7875 28.3539 25.9128 27.518 26.9892C25.7786 29.2372 24.0017 30.7538 23.5019 31.1626C23.0023 30.7539 21.2253 29.2373 19.4858 26.9892C18.6718 25.9379 17.9525 24.8276 17.4166 23.7717C16.5153 21.9967 16.0604 20.2864 16.0604 18.6601C16.0604 16.4926 16.826 14.4922 18.2162 13.0272C18.3666 12.8687 18.36 12.6184 18.2016 12.468C18.0431 12.3176 17.7928 12.3242 17.6424 12.4826C16.1121 14.0952 15.2693 16.2891 15.2693 18.6601C15.2693 20.2491 15.6681 21.9028 16.4576 23.6056H14.4128C13.6833 23.6056 13.0648 24.1515 12.9739 24.8753L12.2459 30.676C12.2454 30.6801 12.2447 30.6841 12.2444 30.6882L11.9271 33.2163V33.2164L11.6567 35.3703C11.5341 36.1728 12.2263 37.0094 13.0956 37.0012H33.9082C34.7197 37.0229 35.4635 36.2318 35.3471 35.3703V35.3703ZM21.4056 30.3299H18.6528L18.7209 27.2908C18.7671 27.3516 18.8131 27.4124 18.8602 27.4734C19.7527 28.6268 20.6577 29.5955 21.4056 30.3299ZM12.6013 35.9871C12.4744 35.8432 12.4177 35.6592 12.4415 35.4688L12.6695 33.6524H21.1816C21.4 33.6524 21.5771 33.4753 21.5771 33.2568C21.5771 33.0384 21.4 32.8613 21.1816 32.8613H12.7688L12.9872 31.1209H15.3533C15.7115 31.1209 16.0072 30.8297 16.0124 30.4719L16.045 28.3054C16.0483 28.087 15.8738 27.9072 15.6555 27.904C15.6534 27.904 15.6514 27.9039 15.6494 27.9039C15.4338 27.9039 15.2573 28.0771 15.2541 28.2935L15.2235 30.3299H13.0865L13.7588 24.9739C13.8001 24.6449 14.0813 24.3968 14.4129 24.3968H15.3125L15.2818 26.4471C15.2785 26.6656 15.4529 26.8453 15.6713 26.8486C15.6733 26.8486 15.6754 26.8486 15.6774 26.8486C15.893 26.8486 16.0694 26.6754 16.0727 26.459L16.1037 24.3968H16.8504C17.1701 25 17.5381 25.609 17.9537 26.223L17.8588 30.4518C17.8563 30.6298 17.9237 30.7977 18.0487 30.9245C18.1736 31.0512 18.3402 31.1209 18.518 31.1209H22.2449C22.7965 31.619 23.1471 31.8924 23.1557 31.8991C23.2577 31.9779 23.3798 32.0174 23.5019 32.0174C23.624 32.0174 23.7462 31.9779 23.848 31.8991C23.8567 31.8924 24.2074 31.6191 24.7589 31.121H34.0165L34.235 32.8613H31.2539C30.8904 32.8613 30.5947 33.157 30.5947 33.5206V36.2102H28.749V33.5206C28.749 33.157 28.4533 32.8613 28.0898 32.8613H23.0273C22.8089 32.8613 22.6318 33.0384 22.6318 33.2569C22.6318 33.4753 22.8089 33.6524 23.0273 33.6524H27.958V36.2102H13.0956C12.9038 36.2102 12.7282 36.1309 12.6013 35.9871V35.9871ZM34.4025 35.9871C34.2756 36.131 34.1 36.2102 33.9082 36.2102H31.3857V33.6524H34.3342L34.5622 35.4688C34.5861 35.6592 34.5294 35.8432 34.4025 35.9871V35.9871Z" fill="black"/>
<path d="M23.501 24.8564C26.9177 24.8564 29.6974 22.0765 29.6974 18.6596C29.6974 15.2427 26.9177 12.4629 23.501 12.4629C20.0843 12.4629 17.3047 15.2427 17.3047 18.6596C17.3047 22.0765 20.0843 24.8564 23.501 24.8564ZM23.501 13.254C26.4816 13.254 28.9064 15.6789 28.9064 18.6596C28.9064 21.6403 26.4816 24.0653 23.501 24.0653C20.5205 24.0653 18.0957 21.6403 18.0957 18.6596C18.0957 15.6789 20.5205 13.254 23.501 13.254Z" fill="black"/>
</g>
<path d="M46.5 23.5014C46.5 23.165 46.4928 22.8304 46.4785 22.4975L45.9789 22.5189C45.9506 21.8591 45.8938 21.2065 45.8098 20.5626L46.3056 20.4979C46.2185 19.8297 46.1026 19.1705 45.9594 18.5215L45.4711 18.6292C45.3293 17.9865 45.1599 17.354 44.9644 16.7332L45.4413 16.583C45.2393 15.9417 45.0099 15.3125 44.7547 14.6968L44.2928 14.8884C44.0412 14.2816 43.7638 13.6882 43.462 13.1095L43.9053 12.8783C43.5951 12.2835 43.2596 11.704 42.9004 11.1413L42.4789 11.4103C42.1262 10.8577 41.75 10.3215 41.3517 9.80317L41.7482 9.49852C41.3402 8.96756 40.9095 8.45492 40.4577 7.96205L40.0892 8.29992C39.6468 7.81734 39.1836 7.35412 38.701 6.91168L39.0389 6.54315C38.5461 6.09127 38.0335 5.66059 37.5026 5.25256L37.1979 5.649C36.6796 5.25067 36.1435 4.87441 35.5909 4.52161L35.8599 4.10018C35.2972 3.74089 34.7177 3.4054 34.123 3.09514L33.8917 3.53844C33.3131 3.23659 32.7197 2.95915 32.113 2.70751L32.3045 2.24565C31.6888 1.99032 31.0597 1.76096 30.4184 1.55893L30.2681 2.03582C29.6473 1.84024 29.0149 1.67086 28.3721 1.52895L28.4799 1.04071C27.8309 0.897431 27.1717 0.781571 26.5035 0.6944L26.4388 1.1902C25.7948 1.10619 25.1423 1.04942 24.4824 1.02106L24.5039 0.521526C24.171 0.507223 23.8363 0.5 23.5 0.5C23.1637 0.5 22.829 0.507223 22.4961 0.521526L22.5176 1.02107C21.8577 1.04942 21.2052 1.10619 20.5612 1.1902L20.4965 0.694401C19.8283 0.781571 19.1691 0.897432 18.5201 1.04071L18.6279 1.52896C17.9851 1.67086 17.3527 1.84024 16.7319 2.03582L16.5816 1.55893C15.9403 1.76096 15.3112 1.99033 14.6955 2.24565L14.887 2.70751C14.2803 2.95916 13.6869 3.23659 13.1083 3.53844L12.877 3.09514C12.2823 3.4054 11.7028 3.74089 11.1401 4.10018L11.4091 4.52161C10.8565 4.87441 10.3204 5.25067 9.80209 5.649L9.49741 5.25256C8.96648 5.66059 8.45388 6.09127 7.96105 6.54315L8.29896 6.91168C7.81642 7.35412 7.35325 7.81734 6.91085 8.29992L6.54228 7.96205C6.09045 8.45492 5.65982 8.96756 5.25183 9.49852L5.64831 9.80317C5.25002 10.3215 4.87381 10.8577 4.52106 11.4103L4.0996 11.1413C3.74036 11.704 3.40492 12.2835 3.0947 12.8783L3.53802 13.1095C3.23621 13.6882 2.95882 14.2816 2.70722 14.8884L2.24535 14.6968C1.99006 15.3125 1.76073 15.9417 1.55874 16.583L2.03564 16.7332C1.84009 17.354 1.67074 17.9865 1.52886 18.6292L1.04061 18.5215C0.897358 19.1705 0.781518 19.8297 0.694364 20.4979L1.19016 20.5626C1.10617 21.2065 1.04941 21.8591 1.02106 22.5189L0.521522 22.4975C0.507222 22.8304 0.5 23.165 0.5 23.5014C0.5 23.8377 0.507222 24.1724 0.521522 24.5053L1.02106 24.4838C1.04941 25.1437 1.10617 25.7962 1.19016 26.4402L0.694364 26.5049C0.781519 27.1731 0.897358 27.8323 1.04061 28.4813L1.52886 28.3735C1.67074 29.0163 1.84009 29.6487 2.03564 30.2696L1.55874 30.4198C1.76073 31.0611 1.99006 31.6903 2.24535 32.3059L2.70722 32.1144C2.95882 32.7212 3.23621 33.3146 3.53802 33.8933L3.0947 34.1245C3.40492 34.7192 3.74036 35.2987 4.0996 35.8615L4.52106 35.5925C4.87381 36.1451 5.25002 36.6813 5.64831 37.1996L5.25183 37.5043C5.65982 38.0352 6.09045 38.5479 6.54228 39.0407L6.91085 38.7029C7.35325 39.1854 7.81643 39.6487 8.29896 40.0911L7.96105 40.4596C8.45389 40.9115 8.96649 41.3422 9.49741 41.7502L9.80209 41.3538C10.3204 41.7521 10.8565 42.1284 11.4091 42.4812L11.1401 42.9026C11.7028 43.2619 12.2823 43.5974 12.877 43.9076L13.1083 43.4643C13.6869 43.7662 14.2803 44.0436 14.8871 44.2953L14.6955 44.7571C15.3112 45.0124 15.9403 45.2418 16.5816 45.4438L16.7319 44.967C17.3527 45.1625 17.9851 45.3319 18.6279 45.4738L18.5201 45.9621C19.1691 46.1053 19.8283 46.2212 20.4965 46.3084L20.5612 45.8126C21.2052 45.8966 21.8577 45.9534 22.5176 45.9817L22.4961 46.4812C22.829 46.4955 23.1637 46.5028 23.5 46.5028C23.8363 46.5028 24.171 46.4955 24.5039 46.4812L24.4824 45.9817C25.1423 45.9534 25.7948 45.8966 26.4388 45.8126L26.5035 46.3084C27.1717 46.2212 27.8309 46.1053 28.4799 45.9621L28.3721 45.4738C29.0149 45.3319 29.6473 45.1625 30.2681 44.9669L30.4184 45.4438C31.0597 45.2418 31.6888 45.0124 32.3045 44.7571L32.113 44.2953C32.7197 44.0436 33.3131 43.7662 33.8917 43.4643L34.123 43.9076C34.7177 43.5974 35.2972 43.2619 35.8599 42.9026L35.5909 42.4812C36.1435 42.1284 36.6796 41.7521 37.1979 41.3538L37.5026 41.7502C38.0335 41.3422 38.5461 40.9115 39.0389 40.4596L38.701 40.0911C39.1836 39.6487 39.6468 39.1854 40.0892 38.7029L40.4577 39.0407C40.9095 38.5479 41.3402 38.0352 41.7482 37.5043L41.3517 37.1996C41.75 36.6813 42.1262 36.1451 42.4789 35.5925L42.9004 35.8615C43.2596 35.2987 43.5951 34.7192 43.9053 34.1245L43.462 33.8933C43.7638 33.3146 44.0412 32.7212 44.2928 32.1144L44.7547 32.3059C45.0099 31.6903 45.2393 31.0611 45.4413 30.4198L44.9644 30.2696C45.1599 29.6487 45.3293 29.0163 45.4711 28.3735L45.9594 28.4813C46.1026 27.8323 46.2185 27.1731 46.3056 26.5049L45.8098 26.4402C45.8938 25.7962 45.9506 25.1437 45.9789 24.4838L46.4785 24.5053C46.4928 24.1724 46.5 23.8377 46.5 23.5014Z" stroke="black" stroke-dasharray="2 2"/>
<defs>
<clipPath id="clip0_825_5120">
<rect width="27" height="27.0017" fill="white" transform="translate(10 10)"/>
</clipPath>
</defs>
</svg>
