<svg width="47" height="47" viewBox="0 0 47 47" fill="none" xmlns="http://www.w3.org/2000/svg">
<path d="M33.1807 10.3955H32.2195H15.4253H13.7458C12.8183 10.3955 12.0664 11.1474 12.0664 12.0749V29.2485C12.0664 29.9665 12.6485 30.5486 13.3666 30.5486H15.4253V35.8357C15.4253 36.0198 15.5516 36.1799 15.7307 36.2227L17.2833 36.5937C17.3441 36.6083 17.4074 36.6083 17.4683 36.5937L19.2338 36.1718C19.2946 36.1573 19.358 36.1573 19.4188 36.1718L21.1841 36.5937C21.2449 36.6083 21.3083 36.6083 21.3691 36.5937L23.1344 36.1718C23.1952 36.1573 23.2586 36.1573 23.3194 36.1718L25.0849 36.5937C25.1457 36.6083 25.2091 36.6083 25.2699 36.5937L27.0355 36.1718C27.0963 36.1573 27.1596 36.1573 27.2204 36.1718L28.9861 36.5937C29.0469 36.6083 29.1103 36.6083 29.1711 36.5937L30.9367 36.1718C30.9975 36.1573 31.0609 36.1573 31.1217 36.1718L32.8876 36.5937C32.9484 36.6082 33.0117 36.6082 33.0725 36.5937L34.6255 36.2226C34.8046 36.1798 34.9309 36.0198 34.9309 35.8357V12.1457C34.9309 11.1791 34.1473 10.3955 33.1807 10.3955Z" fill="#FE3F3F"/>
<path d="M13.7458 10.3955C12.8183 10.3955 12.0664 11.1474 12.0664 12.0749V29.2485C12.0664 29.9665 12.6485 30.5486 13.3666 30.5486H15.4253V12.0749C15.4253 11.1474 14.6733 10.3955 13.7458 10.3955Z" fill="#E91B1A"/>
<path d="M33.1809 10.3955H32.2197H32.0176V36.1497L31.5234 36.2678L32.8877 36.5938C32.9485 36.6083 33.0119 36.6083 33.0727 36.5938L34.6256 36.2227C34.8047 36.1799 34.931 36.0198 34.931 35.8357V12.1457C34.931 11.1791 34.1474 10.3955 33.1809 10.3955Z" fill="#E91B1A"/>
<path d="M17.5762 13.3994C17.5762 13.2477 17.7336 13.1689 17.8967 13.1689H18.9818C19.5665 13.1689 20.1119 13.3601 20.1119 14.1585C20.1119 14.6195 19.9319 14.9231 19.6339 15.0524C19.9769 15.1874 20.213 15.4066 20.213 15.9688V16.0869C20.213 16.9639 19.7239 17.2788 19.0885 17.2788H17.8966C17.6999 17.2788 17.5762 17.172 17.5762 17.0539V13.3994H17.5762ZM18.3015 14.7657H18.9311C19.2347 14.7657 19.3809 14.5689 19.3809 14.2822C19.3809 13.9898 19.2123 13.8099 18.9255 13.8099H18.3014L18.3015 14.7657ZM18.9368 16.6378C19.2797 16.6378 19.4821 16.4523 19.4821 16.025V15.9351C19.4821 15.4966 19.2797 15.3391 18.9368 15.3391H18.3015V16.6378C18.3015 16.6378 18.9368 16.6378 18.9368 16.6378Z" fill="black"/>
<path d="M20.7344 13.3939C20.7344 13.2364 20.9143 13.1689 21.0998 13.1689C21.2798 13.1689 21.4653 13.2364 21.4653 13.3939V17.0483C21.4653 17.2001 21.2798 17.2788 21.0998 17.2788C20.9143 17.2788 20.7344 17.2001 20.7344 17.0483V13.3939Z" fill="black"/>
<path d="M22.4611 17.2788C22.298 17.2788 22.1406 17.2001 22.1406 17.0483V13.3939C22.1406 13.2364 22.3206 13.1689 22.5061 13.1689C22.686 13.1689 22.8715 13.2364 22.8715 13.3939V16.6379H24.2434C24.3895 16.6379 24.4626 16.7953 24.4626 16.9583C24.4626 17.1157 24.3895 17.2788 24.2434 17.2788H22.4611Z" fill="black"/>
<path d="M25.1818 17.2788C25.0187 17.2788 24.8613 17.2001 24.8613 17.0483V13.3939C24.8613 13.2364 25.0413 13.1689 25.2268 13.1689C25.4067 13.1689 25.5922 13.2364 25.5922 13.3939V16.6379H26.9641C27.1102 16.6379 27.1833 16.7953 27.1833 16.9583C27.1833 17.1157 27.1102 17.2788 26.9641 17.2788H25.1818Z" fill="black"/>
<path d="M30.8325 17.2732C30.1523 17.2563 29.6406 16.8909 29.6406 16.576C29.6406 16.4186 29.7812 16.1824 29.9554 16.1824C30.1691 16.1824 30.3378 16.5479 30.8325 16.6041V15.4853C30.3209 15.2941 29.7418 15.0749 29.7418 14.3552C29.7418 13.6412 30.2703 13.332 30.8325 13.2589V13.1015C30.8325 13.0284 30.9168 12.9609 31.0237 12.9609C31.1192 12.9609 31.2149 13.0284 31.2149 13.1015V13.2477C31.5803 13.2589 32.1763 13.3657 32.1763 13.6918C32.1763 13.8211 32.0863 14.0797 31.8783 14.0797C31.7209 14.0797 31.5915 13.8998 31.2149 13.8717V14.8612C31.7152 15.0468 32.2774 15.2998 32.2774 16.0644C32.2774 16.7559 31.8446 17.1551 31.2149 17.2563V17.4306C31.2149 17.5037 31.1192 17.5711 31.0237 17.5711C30.9168 17.5711 30.8325 17.5037 30.8325 17.4306V17.2732V17.2732ZM30.8775 14.7376V13.8886C30.5964 13.9337 30.4277 14.0686 30.4277 14.2822C30.4277 14.5296 30.6189 14.6364 30.8775 14.7376ZM31.1698 15.6203V16.5986C31.4172 16.548 31.5915 16.4018 31.5915 16.1376C31.5915 15.8621 31.4116 15.7271 31.1698 15.6203Z" fill="black"/>
<path d="M27.7005 21.5547H17.5107C17.2923 21.5547 17.1152 21.7317 17.1152 21.9502C17.1152 22.1687 17.2923 22.3457 17.5107 22.3457H27.7005C27.9189 22.3457 28.096 22.1687 28.096 21.9502C28.096 21.7317 27.9189 21.5547 27.7005 21.5547Z" fill="black"/>
<path d="M27.7005 24.8457H17.5107C17.2923 24.8457 17.1152 25.0227 17.1152 25.2412C17.1152 25.4597 17.2923 25.6367 17.5107 25.6367H27.7005C27.9189 25.6367 28.096 25.4597 28.096 25.2412C28.096 25.0227 27.9189 24.8457 27.7005 24.8457Z" fill="black"/>
<path d="M27.7005 28.1357H17.5107C17.2923 28.1357 17.1152 28.3128 17.1152 28.5312C17.1152 28.7497 17.2923 28.9268 17.5107 28.9268H27.7005C27.9189 28.9268 28.096 28.7497 28.096 28.5312C28.096 28.3128 27.9189 28.1357 27.7005 28.1357Z" fill="black"/>
<path d="M27.7005 31.4258H17.5107C17.2923 31.4258 17.1152 31.6028 17.1152 31.8213C17.1152 32.0398 17.2923 32.2168 17.5107 32.2168H27.7005C27.9189 32.2168 28.096 32.0398 28.096 31.8213C28.096 31.6028 27.9189 31.4258 27.7005 31.4258Z" fill="black"/>
<path d="M32.135 21.5547H29.5713C29.3529 21.5547 29.1758 21.7317 29.1758 21.9502C29.1758 22.1687 29.3529 22.3457 29.5713 22.3457H32.135C32.3534 22.3457 32.5305 22.1687 32.5305 21.9502C32.5305 21.7317 32.3534 21.5547 32.135 21.5547Z" fill="black"/>
<path d="M32.135 24.8457H29.5713C29.3529 24.8457 29.1758 25.0227 29.1758 25.2412C29.1758 25.4597 29.3529 25.6367 29.5713 25.6367H32.135C32.3534 25.6367 32.5305 25.4597 32.5305 25.2412C32.5305 25.0227 32.3534 24.8457 32.135 24.8457Z" fill="black"/>
<path d="M32.135 28.1357H29.5713C29.3529 28.1357 29.1758 28.3128 29.1758 28.5312C29.1758 28.7497 29.3529 28.9268 29.5713 28.9268H32.135C32.3534 28.9268 32.5305 28.7497 32.5305 28.5312C32.5305 28.3128 32.3534 28.1357 32.135 28.1357Z" fill="black"/>
<path d="M33.1817 10H13.7468C12.6027 10 11.6719 10.9308 11.6719 12.0749V29.2484C11.6719 30.1834 12.4325 30.944 13.3675 30.944H13.5683C13.7867 30.944 13.9638 30.767 13.9638 30.5485C13.9638 30.33 13.7867 30.153 13.5683 30.153H13.3675C12.8687 30.153 12.4629 29.7472 12.4629 29.2484V12.0749C12.4629 11.3669 13.0389 10.791 13.7468 10.791C14.4548 10.791 15.0307 11.3669 15.0307 12.0749V35.8356C15.0307 36.2043 15.2812 36.5216 15.6397 36.6073L17.1924 36.9783C17.313 37.0072 17.4405 37.0071 17.5611 36.9783L19.3278 36.5564L21.0931 36.9783C21.2138 37.0072 21.3413 37.0071 21.462 36.9783L23.2284 36.5564L24.994 36.9783C25.1146 37.0072 25.2421 37.0071 25.3628 36.9783L27.1295 36.5564L28.8952 36.9783C29.0159 37.0072 29.1433 37.0071 29.264 36.9783L31.0308 36.5564L32.7964 36.9782C32.8568 36.9927 32.919 36.9999 32.9811 36.9999C33.0432 36.9999 33.1052 36.9927 33.1655 36.9783L34.7185 36.6073C35.077 36.5216 35.3275 36.2043 35.3275 35.8356V12.1457C35.3274 10.9625 34.3648 10 33.1817 10ZM34.5345 35.838L32.9804 36.209L31.2145 35.7871C31.0939 35.7582 30.9664 35.7582 30.8457 35.7871L29.079 36.209L27.3133 35.7871C27.1926 35.7583 27.0651 35.7583 26.9445 35.7871L25.1778 36.209L23.4121 35.7871C23.2915 35.7583 23.164 35.7584 23.0434 35.7871L21.277 36.209L19.5116 35.7871C19.4513 35.7727 19.3893 35.7655 19.3273 35.7655C19.2653 35.7655 19.2032 35.7728 19.1429 35.7871L17.3762 36.209L15.8218 35.8357V12.0749C15.8218 12.0416 15.8208 12.0085 15.8192 11.9756C15.8187 11.9649 15.8179 11.9543 15.8172 11.9436C15.8158 11.9214 15.8142 11.8992 15.8121 11.8771C15.8109 11.8648 15.8095 11.8526 15.8081 11.8404C15.8058 11.8199 15.8032 11.7995 15.8003 11.7791C15.7986 11.7668 15.7968 11.7545 15.7948 11.7422C15.7914 11.7217 15.7877 11.7012 15.7838 11.6808C15.7816 11.6694 15.7795 11.658 15.7771 11.6466C15.7722 11.6233 15.7667 11.6001 15.761 11.577C15.7591 11.5691 15.7574 11.5611 15.7553 11.5532C15.7473 11.5225 15.7386 11.4921 15.7293 11.4619C15.7269 11.4543 15.7243 11.4469 15.7218 11.4393C15.7145 11.4168 15.707 11.3942 15.699 11.372C15.6951 11.3612 15.6909 11.3505 15.6868 11.3398C15.6796 11.3209 15.6723 11.3022 15.6646 11.2836C15.6599 11.2722 15.6551 11.2609 15.6502 11.2497C15.6424 11.2317 15.6342 11.2139 15.6259 11.1962C15.6208 11.1853 15.6157 11.1743 15.6103 11.1635C15.6012 11.1448 15.5916 11.1264 15.5818 11.1079C15.5769 11.0987 15.5722 11.0894 15.5672 11.0802C15.5532 11.0546 15.5387 11.0294 15.5236 11.0045C15.5226 11.0028 15.5217 11.0011 15.5206 10.9994C15.5046 10.9729 15.4878 10.947 15.4705 10.9213C15.4649 10.9129 15.459 10.9048 15.4532 10.8965C15.4412 10.8792 15.4291 10.8619 15.4166 10.845C15.4097 10.8356 15.4026 10.8264 15.3955 10.8172C15.3889 10.8085 15.3825 10.7996 15.3757 10.7911H33.1817C33.9287 10.7911 34.5364 11.3988 34.5364 12.1458L34.5345 35.838Z" fill="black"/>
<circle cx="23.5" cy="23.5" r="23" stroke="black" stroke-dasharray="2 2"/>
</svg>
