<svg width="47" height="47" viewBox="0 0 47 47" fill="none" xmlns="http://www.w3.org/2000/svg">
<g clip-path="url(#clip0_825_5191)">
<path d="M32.7502 22.2796C34.8785 22.2796 36.6038 20.5543 36.6038 18.4259C36.6038 16.2976 34.8785 14.5723 32.7502 14.5723C30.6218 14.5723 28.8965 16.2976 28.8965 18.4259C28.8965 20.5543 30.6218 22.2796 32.7502 22.2796Z" fill="#E91B1A"/>
<path d="M33.3368 14.6162C34.0519 15.3158 34.4957 16.2916 34.4957 17.3711C34.4957 19.4994 32.7704 21.2247 30.642 21.2247C30.443 21.2247 30.2475 21.2096 30.0566 21.1805C30.7515 21.8603 31.7025 22.2794 32.7514 22.2794C34.8797 22.2794 36.6051 20.554 36.6051 18.4257C36.6051 16.4964 35.1873 14.8982 33.3368 14.6162Z" fill="#FE3F3F"/>
<path d="M28.8961 18.426C28.8961 18.3847 28.8968 18.3437 28.8981 18.3027H12.2661C11.2325 18.3027 10.3945 19.1407 10.3945 20.1743V30.5563C10.3945 31.59 11.2325 32.4279 12.2661 32.4279H30.8783C31.9119 32.4279 32.7498 31.59 32.7498 30.5563V22.2796C30.6215 22.2797 28.8961 20.5543 28.8961 18.426V18.426Z" fill="#FE3F3F"/>
<path d="M30.6407 21.6514V26.4735C30.6407 29.1794 28.4471 31.373 25.7412 31.373H10.582C10.8854 31.9973 11.5256 32.4277 12.2664 32.4277H30.8785C31.9121 32.4277 32.7501 31.5897 32.7501 30.5561V22.2794C31.9714 22.2794 31.2467 22.0485 30.6407 21.6514V21.6514Z" fill="#E91B1A"/>
<path d="M30.8014 28.8735H28.488C28.458 28.8735 28.4336 28.8491 28.4336 28.8191V27.5574C28.4336 27.5273 28.458 27.5029 28.488 27.5029H30.8014C30.8315 27.5029 30.8558 27.5273 30.8558 27.5574V28.8191C30.8559 28.8491 30.8315 28.8735 30.8014 28.8735Z" fill="#F6F9F9"/>
<path d="M30.8009 27.5029H30.5323C30.4281 27.9906 30.2512 28.4515 30.0137 28.8735H30.8009C30.831 28.8735 30.8554 28.8491 30.8554 28.8191V27.5574C30.8554 27.5273 30.831 27.5029 30.8009 27.5029V27.5029Z" fill="#E7ECF1"/>
<path d="M34.1094 16.7416L32.2185 18.6325C32.1763 18.6747 32.1079 18.6747 32.0657 18.6325L31.3907 17.9575C31.3486 17.9153 31.2802 17.9153 31.238 17.9575L30.3813 18.8142C30.3391 18.8564 30.3391 18.9248 30.3813 18.967L32.0658 20.6515C32.108 20.6937 32.1764 20.6937 32.2186 20.6515L35.119 17.7511C35.1611 17.7089 35.1611 17.6406 35.119 17.5984L34.2622 16.7416C34.2199 16.6994 34.1515 16.6994 34.1094 16.7416V16.7416Z" fill="#F6F9F9"/>
<path d="M34.4721 16.9512C34.487 17.0891 34.4947 17.2293 34.4947 17.3712C34.4947 17.7874 34.4287 18.1882 34.3066 18.5637L35.1192 17.7512C35.1614 17.709 35.1614 17.6406 35.1192 17.5984L34.4721 16.9512Z" fill="#E7ECF1"/>
<path d="M29.9498 21.0742H10.3945V23.6178H32.7498V22.2801C31.6469 22.2801 30.6522 21.8168 29.9498 21.0742Z" fill="#E91B1A"/>
<path d="M30.6406 21.6514V23.617H32.75V22.2794C32.7503 22.2794 32.7497 22.2794 32.75 22.2794C31.9716 22.2793 31.2464 22.0484 30.6406 21.6514Z" fill="#E91B1A"/>
<path d="M19.4365 27.793C19.2181 27.793 19.041 27.97 19.041 28.1885C19.041 28.407 19.2181 28.584 19.4365 28.584H21.0641C21.2825 28.584 21.4596 28.407 21.4596 28.1885C21.4596 27.97 21.2825 27.793 21.0641 27.793H19.4365Z" fill="black"/>
<path d="M22.4189 27.793C22.2005 27.793 22.0234 27.97 22.0234 28.1885C22.0234 28.407 22.2005 28.584 22.4189 28.584H24.0465C24.2649 28.584 24.442 28.407 24.442 28.1885C24.442 27.97 24.2649 27.793 24.0465 27.793H22.4189Z" fill="black"/>
<path d="M25.3994 27.793C25.181 27.793 25.0039 27.97 25.0039 28.1885C25.0039 28.407 25.181 28.584 25.3994 28.584H27.027C27.2454 28.584 27.4225 28.407 27.4225 28.1885C27.4225 27.97 27.2454 27.793 27.027 27.793H25.3994Z" fill="black"/>
<path d="M28.489 27.1074C28.2409 27.1074 28.0391 27.3092 28.0391 27.5574V28.8191C28.0391 29.0672 28.2409 29.269 28.489 29.269H30.8024C31.0506 29.269 31.2524 29.0672 31.2524 28.8191V27.5574C31.2524 27.3092 31.0505 27.1074 30.8024 27.1074H28.489ZM30.4614 28.478H28.8301V27.8985H30.4614V28.478Z" fill="black"/>
<path d="M32.4993 20.9313L35.3998 18.0308C35.5965 17.834 35.5965 17.5155 35.3997 17.3188L34.5432 16.4623C34.3466 16.2654 34.0278 16.265 33.8309 16.4621L32.1433 18.1496L31.6715 17.6778C31.4751 17.4816 31.1557 17.4818 30.9594 17.6779L30.1028 18.5346C29.906 18.7313 29.9058 19.0499 30.1027 19.2468L31.7871 20.9311C31.9839 21.1283 32.3029 21.128 32.4993 20.9313ZM31.3155 18.4405L31.7871 18.912C31.9839 19.1092 32.3028 19.109 32.4993 18.9122L34.1869 17.2247L34.6371 17.6748L32.1433 20.1686L30.8653 18.8907L31.3155 18.4405Z" fill="black"/>
<path d="M32.7508 14.1768C31.6752 14.1768 30.6488 14.5795 29.8608 15.3109C29.7007 15.4594 29.6914 15.7096 29.8399 15.8698C29.9885 16.0299 30.2387 16.0392 30.3989 15.8907C31.0402 15.2956 31.8754 14.9678 32.7508 14.9678C34.6576 14.9678 36.209 16.5192 36.209 18.426C36.209 20.3328 34.6576 21.8842 32.7508 21.8842C30.8439 21.8842 29.2926 20.3328 29.2926 18.426C29.2926 18.0424 29.3549 17.6657 29.4778 17.3065C29.5484 17.0998 29.4382 16.8749 29.2315 16.8043C29.0248 16.7337 28.8 16.8439 28.7293 17.0506C28.6341 17.3289 28.5685 17.6156 28.533 17.9073H12.2671C11.017 17.9072 10 18.9243 10 20.1743V30.5563C10 31.8064 11.017 32.8234 12.2671 32.8234H30.8792C32.1293 32.8234 33.1463 31.8064 33.1463 30.5563V27.7652C33.1463 27.5468 32.9692 27.3697 32.7508 27.3697C32.5323 27.3697 32.3553 27.5468 32.3553 27.7652V30.5563C32.3553 31.3703 31.6931 32.0324 30.8792 32.0324H12.2671C11.4532 32.0324 10.791 31.3702 10.791 30.5563V24.0128H13.0638C13.2822 24.0128 13.4593 23.8357 13.4593 23.6173C13.4593 23.3988 13.2822 23.2218 13.0638 23.2218H10.791V21.4692H29.7882C30.4654 22.1287 31.3613 22.5647 32.3553 22.6569V23.2218H14.9095C14.6911 23.2218 14.514 23.3988 14.514 23.6173C14.514 23.8358 14.6911 24.0128 14.9095 24.0128H32.3553V25.9196C32.3553 26.1381 32.5324 26.3151 32.7508 26.3151C32.9692 26.3151 33.1463 26.1381 33.1463 25.9196V22.6569C35.3046 22.4567 37 20.6356 37 18.4259C37 16.0829 35.0938 14.1768 32.7508 14.1768ZM10.791 20.1743C10.791 19.3604 11.4532 18.6983 12.2671 18.6983H28.5102C28.5562 19.422 28.7842 20.0971 29.1489 20.6782H10.791V20.1743Z" fill="black"/>
</g>
<circle cx="23.5" cy="23.5" r="23" stroke="black" stroke-dasharray="2 2"/>
<defs>
<clipPath id="clip0_825_5191">
<rect width="27" height="27" fill="white" transform="translate(10 10)"/>
</clipPath>
</defs>
</svg>
