<svg width="47" height="47" viewBox="0 0 47 47" fill="none" xmlns="http://www.w3.org/2000/svg">
<g style="mix-blend-mode:luminosity" opacity="0.45">

<path d="M28.9113 15.3828H12.6775C12.4285 15.3828 12.2266 15.5847 12.2266 15.8337V25.3035H13.5794C14.0774 25.3035 14.4812 25.7072 14.4812 26.2053C14.4812 26.7034 14.0774 27.1072 13.5794 27.1072H12.2266V28.46C12.2266 28.709 12.4285 28.9109 12.6775 28.9109H29.3623V15.8337C29.3623 15.5847 29.1604 15.3828 28.9113 15.3828Z" fill="#FE3F3F"/>
<path d="M34.7726 22.5977H29.3613V28.9108H36.5763V24.4014C36.5763 23.4052 35.7688 22.5977 34.7726 22.5977Z" fill="#FE3F3F"/>
<path d="M29 24H34.065C34.5814 24 35 24.407 35 24.9091V29H29V24V24Z" fill="#E91B1A"/>
<path d="M32.9688 17.1865H29.3613V18.9903H34.3217V18.5394C34.3217 17.7922 33.716 17.1865 32.9688 17.1865Z" fill="#FE3F3F"/>
<path d="M34.7726 22.5977L33.8707 18.9902H29.3613V22.5977H34.7726Z" fill="#EDEDED"/>
<path d="M34.7734 24.4014H36.5772V26.2051H35.6754C35.1772 26.2051 34.7735 25.8014 34.7735 25.3033V24.4014H34.7734Z" fill="#F1F4FB"/>
<path d="M32.5179 25.7539C31.1588 25.7539 29.9764 26.5062 29.3613 27.6163V28.9105H36.0942C35.8719 27.1314 34.3572 25.7539 32.5179 25.7539Z" fill="#9E0100"/>
<path d="M35.1484 26.8965V28.911H36.0943C35.9975 28.1364 35.6554 27.4383 35.1484 26.8965Z" fill="#E91B1A"/>
<path d="M32.5184 31.6168C33.7636 31.6168 34.7731 30.6074 34.7731 29.3621C34.7731 28.1169 33.7636 27.1074 32.5184 27.1074C31.2731 27.1074 30.2637 28.1169 30.2637 29.3621C30.2637 30.6074 31.2731 31.6168 32.5184 31.6168Z" fill="#5B5D6E"/>
<path d="M31.1651 20.343H34.2089L33.8707 18.9902H29.3613V22.5977H30.7141V20.794C30.7141 20.5449 30.916 20.343 31.1651 20.343Z" fill="#FE3F3F"/>
<path d="M17.6378 25.7539C16.4992 25.7539 15.4853 26.2827 14.8242 27.1067H13.5794H12.2266V28.4595C12.2266 28.7085 12.4285 28.9104 12.6775 28.9104H29.3623V27.1066H20.4515C19.7904 26.2827 18.7765 25.7539 17.6378 25.7539Z" fill="#9E0100"/>
<path d="M17.6375 31.6168C18.8828 31.6168 19.8922 30.6074 19.8922 29.3621C19.8922 28.1169 18.8828 27.1074 17.6375 27.1074C16.3923 27.1074 15.3828 28.1169 15.3828 29.3621C15.3828 30.6074 16.3923 31.6168 17.6375 31.6168Z" fill="#5B5D6E"/>
<path d="M35.1099 22.2004L34.4107 19.4037C34.6019 19.3631 34.7453 19.1935 34.7453 18.9903V18.5394C34.7453 17.5603 33.9487 16.7638 32.9697 16.7638H29.785V15.8337C29.785 15.3519 29.3931 14.96 28.9113 14.96H12.6774C12.1956 14.96 11.8037 15.3519 11.8037 15.8337V23.4997C11.8037 23.7331 11.993 23.9224 12.2265 23.9224C12.46 23.9224 12.6493 23.7332 12.6493 23.4997V15.8337C12.6493 15.8181 12.6619 15.8055 12.6774 15.8055H28.9112C28.9268 15.8055 28.9394 15.8181 28.9394 15.8337V23.4998C28.9394 23.7332 29.1287 23.9225 29.3622 23.9225C29.5956 23.9225 29.7849 23.7333 29.7849 23.4998V23.0205H34.772L34.7731 23.0206L34.7742 23.0206C35.3879 23.0209 35.909 23.4238 36.088 23.9788H34.7734C34.5399 23.9788 34.3506 24.1681 34.3506 24.4016V25.3034C34.3506 26.0339 34.9448 26.6281 35.6753 26.6281H36.1544V28.4882H35.049C34.6859 27.4397 33.6891 26.6844 32.5187 26.6844C31.3482 26.6844 30.3515 27.4397 29.9884 28.4882H29.7848V25.3034C29.7848 25.07 29.5956 24.8807 29.3621 24.8807C29.1286 24.8807 28.9393 25.0699 28.9393 25.3034V28.4881H20.1681C19.805 27.4396 18.8082 26.6843 17.6378 26.6843C16.4673 26.6843 15.4706 27.4396 15.1075 28.4881H12.6774C12.6619 28.4881 12.6493 28.4755 12.6493 28.46V27.5299H14.4812C14.7147 27.5299 14.904 27.3406 14.904 27.1071C14.904 26.8737 14.7147 26.6843 14.4812 26.6843H10.4228C10.1893 26.6843 10 26.8736 10 27.1071C10 27.3406 10.1893 27.5299 10.4228 27.5299H11.8038V28.46C11.8038 28.9417 12.1957 29.3337 12.6775 29.3337H14.9611C14.961 29.3431 14.9604 29.3524 14.9604 29.3618C14.9604 30.8382 16.1615 32.0393 17.6378 32.0393C19.1141 32.0393 20.3152 30.8382 20.3152 29.3618C20.3152 29.3523 20.3146 29.3431 20.3145 29.3337H29.842C29.8419 29.3431 29.8413 29.3524 29.8413 29.3618C29.8413 30.8382 31.0424 32.0393 32.5187 32.0393C33.995 32.0393 35.1961 30.8382 35.1961 29.3618C35.1961 29.3523 35.1955 29.3431 35.1954 29.3337H36.5772C36.8106 29.3337 36.9999 29.1444 36.9999 28.9109V24.4015C37 23.2882 36.1786 22.3631 35.1099 22.2004ZM29.785 19.413H33.5415L34.232 22.175H29.785V19.413ZM32.9697 17.6093C33.4826 17.6093 33.8998 18.0265 33.8998 18.5394V18.5675H29.785V17.6093H32.9697ZM17.6378 31.1938C16.6277 31.1938 15.8058 30.3721 15.8058 29.3619C15.8058 28.3517 16.6277 27.5299 17.6378 27.5299C18.6479 27.5299 19.4697 28.3517 19.4697 29.3619C19.4697 30.3721 18.6479 31.1938 17.6378 31.1938ZM32.5188 31.1938C31.5087 31.1938 30.6869 30.3721 30.6869 29.3619C30.6869 28.3517 31.5087 27.5299 32.5188 27.5299C33.5289 27.5299 34.3507 28.3517 34.3507 29.3619C34.3507 30.3721 33.5289 31.1938 32.5188 31.1938ZM35.6754 25.7825C35.4112 25.7825 35.1962 25.5676 35.1962 25.3034V24.8242H36.1545V25.7825L35.6754 25.7825Z" fill="black"/>
<path d="M17.6374 28.4883C17.1556 28.4883 16.7637 28.8802 16.7637 29.362C16.7637 29.8438 17.1556 30.2357 17.6374 30.2357C18.1192 30.2357 18.5111 29.8438 18.5111 29.362C18.5111 28.8802 18.1192 28.4883 17.6374 28.4883Z" fill="black"/>
<path d="M32.5182 28.4883C32.0365 28.4883 31.6445 28.8802 31.6445 29.362C31.6445 29.8438 32.0365 30.2357 32.5182 30.2357C33 30.2357 33.3919 29.8438 33.3919 29.362C33.3919 28.8802 33 28.4883 32.5182 28.4883Z" fill="black"/>
<path d="M20.8223 27.1073C20.8223 27.3408 21.0115 27.5301 21.245 27.5301H27.5581C27.7916 27.5301 27.9809 27.3408 27.9809 27.1073C27.9809 26.8739 27.7916 26.6846 27.5581 26.6846H21.245C21.0115 26.6846 20.8223 26.8739 20.8223 27.1073Z" fill="black"/>
<path d="M11.3251 25.7264H16.7364C16.9699 25.7264 17.1592 25.5371 17.1592 25.3036C17.1592 25.0702 16.9699 24.8809 16.7364 24.8809H11.3251C11.0917 24.8809 10.9023 25.0701 10.9023 25.3036C10.9023 25.5371 11.0917 25.7264 11.3251 25.7264Z" fill="black"/>
<path d="M24.103 19.1423L20.3435 22.9018L18.3877 20.9461C18.2226 20.781 17.9549 20.781 17.7898 20.9461C17.6247 21.1112 17.6247 21.3788 17.7898 21.5439L20.0446 23.7986C20.1271 23.8812 20.2353 23.9225 20.3435 23.9225C20.4516 23.9225 20.5598 23.8812 20.6424 23.7986L24.7008 19.7402C24.8659 19.5751 24.8659 19.3075 24.7008 19.1423C24.5358 18.9773 24.2681 18.9773 24.103 19.1423Z" fill="black"/>
<circle cx="23.5" cy="23.5" r="23" stroke="black" stroke-dasharray="2 2"/>
</g>
</svg>
