<svg width="12" height="11" viewBox="0 0 12 11" fill="none" xmlns="http://www.w3.org/2000/svg">
<path d="M11.9324 1.66303C11.5001 1.85461 11.0356 1.98406 10.5473 2.04257C11.0512 1.74111 11.4281 1.26664 11.6078 0.707688C11.1344 0.988848 10.6164 1.18675 10.0761 1.2928C9.71284 0.9049 9.23164 0.647792 8.70724 0.561396C8.18285 0.475001 7.6446 0.56415 7.17606 0.815004C6.70753 1.06586 6.33492 1.46438 6.11608 1.9487C5.89725 2.43302 5.84444 2.97604 5.96584 3.49345C5.00672 3.44529 4.06843 3.196 3.21189 2.76175C2.35534 2.3275 1.59968 1.718 0.993934 0.972802C0.786814 1.33008 0.66772 1.74432 0.66772 2.18549C0.667489 2.58264 0.76529 2.9737 0.952447 3.32399C1.1396 3.67428 1.41033 3.97295 1.7406 4.19351C1.35757 4.18133 0.982994 4.07783 0.648044 3.89164V3.9227C0.648005 4.47972 0.840682 5.0196 1.19338 5.45073C1.54608 5.88186 2.03708 6.17768 2.58306 6.28801C2.22774 6.38417 1.85521 6.39834 1.49361 6.32944C1.64765 6.80872 1.94772 7.22783 2.35179 7.5281C2.75587 7.82837 3.24373 7.99477 3.74707 8.004C2.89262 8.67476 1.83737 9.03861 0.751086 9.03701C0.558662 9.03706 0.3664 9.02582 0.175293 9.00335C1.27793 9.71231 2.56149 10.0886 3.87238 10.0871C8.30992 10.0871 10.7358 6.41177 10.7358 3.22419C10.7358 3.12063 10.7332 3.01604 10.7286 2.91248C11.2004 2.57123 11.6077 2.14867 11.9314 1.66458L11.9324 1.66303Z" fill="white"/>
</svg>
